<svg width="20" height="21" viewBox="0 0 20 21" fill="none" xmlns="http://www.w3.org/2000/svg">
<path d="M10 0.877563C7.28417 0.877563 6.94362 0.889085 5.877 0.937731C4.81262 0.986288 4.08569 1.15536 3.4496 1.40252C2.79201 1.65808 2.23434 2.00003 1.67842 2.55595C1.12247 3.11187 0.780514 3.66961 0.524987 4.32719C0.277766 4.96326 0.108755 5.69018 0.060138 6.75457C0.0114917 7.82118 0 8.16174 0 10.8776C0 13.5934 0.0114917 13.9339 0.060138 15.0006C0.108755 16.0649 0.277766 16.7919 0.524987 17.4279C0.780544 18.0855 1.1225 18.6432 1.67842 19.1992C2.23437 19.7551 2.79201 20.097 3.4496 20.3526C4.08569 20.5998 4.81262 20.7688 5.877 20.8174C6.94362 20.866 7.28417 20.8776 10 20.8776C12.7158 20.8776 13.0564 20.866 14.123 20.8174C15.1874 20.7688 15.9143 20.5998 16.5504 20.3526C17.208 20.097 17.7656 19.7551 18.3216 19.1992C18.8775 18.6432 19.2195 18.0855 19.475 17.4279C19.7222 16.7919 19.8913 16.0649 19.9398 15.0006C19.9885 13.9339 20 13.5934 20 10.8776C20 8.16174 19.9885 7.82118 19.9398 6.75457C19.8913 5.69018 19.7222 4.96326 19.475 4.32719C19.2195 3.66961 18.8775 3.11187 18.3216 2.55595C17.7656 2.00003 17.208 1.65808 16.5504 1.40252C15.9143 1.15536 15.1874 0.986288 14.123 0.937731C13.0564 0.889085 12.7158 0.877563 10 0.877563ZM10 2.67935C12.6701 2.67935 12.9864 2.68956 14.0409 2.73767C15.0159 2.78212 15.5454 2.94503 15.8977 3.08198C16.3645 3.26341 16.6976 3.48008 17.0475 3.83001C17.3975 4.17994 17.6142 4.51309 17.7956 4.97984C17.9325 5.33221 18.0954 5.86172 18.1399 6.83671C18.188 7.89117 18.1982 8.20747 18.1982 10.8776C18.1982 13.5477 18.188 13.864 18.1399 14.9184C18.0954 15.8934 17.9325 16.4229 17.7956 16.7753C17.6142 17.2421 17.3975 17.5752 17.0475 17.9251C16.6976 18.275 16.3645 18.4917 15.8977 18.6731C15.5454 18.8101 15.0158 18.973 14.0409 19.0175C12.9866 19.0656 12.6703 19.0758 10 19.0758C7.32969 19.0758 7.01349 19.0656 5.95914 19.0174C4.98413 18.973 4.45465 18.8101 4.10231 18.6731C3.63549 18.4917 3.30238 18.275 2.95248 17.9251C2.60255 17.5752 2.38584 17.242 2.20442 16.7753C2.06747 16.4229 1.90459 15.8934 1.86011 14.9184C1.812 13.864 1.80179 13.5477 1.80179 10.8776C1.80179 8.20747 1.812 7.89117 1.86011 6.83671C1.90459 5.8617 2.06747 5.33221 2.20442 4.97987C2.38584 4.51306 2.60255 4.17994 2.95245 3.83004C3.30238 3.48008 3.63552 3.26341 4.10228 3.08198C4.45465 2.94503 4.98416 2.78212 5.95914 2.73767C7.01361 2.68956 7.3299 2.67935 10 2.67935" fill="white"/>
<path d="M9.99991 14.2109C8.15891 14.2109 6.66653 12.7185 6.66653 10.8776C6.66653 9.03655 8.15891 7.54418 9.99991 7.54418C11.8408 7.54418 13.3332 9.03655 13.3332 10.8776C13.3332 12.7185 11.8408 14.2109 9.99991 14.2109ZM9.99991 5.74239C7.1638 5.74239 4.86475 8.04145 4.86475 10.8776C4.86475 13.7136 7.1638 16.0127 9.99991 16.0127C12.836 16.0127 15.135 13.7136 15.135 10.8776C15.135 8.04145 12.836 5.74239 9.99991 5.74239ZM16.5379 5.5395C16.5379 6.20227 16.0006 6.73949 15.3379 6.73949C14.6752 6.73949 14.1379 6.20227 14.1379 5.5395C14.1379 4.87676 14.6752 4.33948 15.3379 4.33948C16.0006 4.33948 16.5379 4.87676 16.5379 5.5395Z" fill="white"/>
</svg>
