<svg width="20" height="21" viewBox="0 0 20 21" fill="none" xmlns="http://www.w3.org/2000/svg">
<path d="M17.041 17.9189H14.0776V13.278C14.0776 12.1713 14.0578 10.7467 12.5362 10.7467C10.9928 10.7467 10.7566 11.9524 10.7566 13.1974V17.9186H7.79314V8.37498H10.6381V9.67921H10.6779C10.9626 9.19241 11.374 8.79195 11.8683 8.52047C12.3626 8.249 12.9213 8.11667 13.4849 8.13759C16.4885 8.13759 17.0423 10.1132 17.0423 12.6834L17.041 17.9189ZM4.44936 7.07043C4.10922 7.07049 3.77671 6.96969 3.49387 6.78077C3.21102 6.59186 2.99055 6.32331 2.86033 6.00909C2.73011 5.69487 2.69599 5.34909 2.76229 5.01548C2.82859 4.68188 2.99232 4.37542 3.23279 4.13486C3.47325 3.89431 3.77965 3.73047 4.11324 3.66405C4.44682 3.59763 4.79261 3.63163 5.10688 3.76173C5.42114 3.89184 5.68977 4.11222 5.87879 4.39499C6.06781 4.67777 6.16873 5.01024 6.16879 5.35038C6.16883 5.57622 6.12439 5.79985 6.038 6.00852C5.95161 6.21718 5.82497 6.40679 5.66531 6.56651C5.50564 6.72623 5.31608 6.85294 5.10745 6.9394C4.89882 7.02587 4.6752 7.07039 4.44936 7.07043ZM5.93109 17.9189H2.96453V8.37498H5.93109V17.9189ZM18.5185 0.878926H1.47538C1.08855 0.87456 0.715816 1.02395 0.439075 1.29426C0.162335 1.56458 0.00423276 1.93371 -0.000488281 2.32053V19.4343C0.00407118 19.8213 0.162072 20.1907 0.438803 20.4613C0.715534 20.7319 1.08836 20.8816 1.47538 20.8774H18.5185C18.9062 20.8823 19.2801 20.7331 19.5579 20.4625C19.8358 20.1919 19.9948 19.8221 20.0002 19.4343V2.3193C19.9947 1.93171 19.8355 1.56216 19.5577 1.29185C19.2798 1.02154 18.9061 0.872579 18.5185 0.877691" fill="white"/>
</svg>
