<svg width="26" height="21" viewBox="0 0 26 21" fill="none" xmlns="http://www.w3.org/2000/svg">
<path d="M8.43461 20.8776C17.7215 20.8776 22.8002 13.1838 22.8002 6.51198C22.8002 6.29348 22.7957 6.07596 22.7859 5.85935C23.774 5.14436 24.6269 4.25904 25.3044 3.24488C24.3998 3.64704 23.4262 3.91774 22.405 4.03979C23.4474 3.41466 24.2476 2.42593 24.6252 1.24719C23.634 1.83518 22.5498 2.24966 21.4191 2.47276C20.4978 1.49138 19.1862 0.877563 17.7337 0.877563C14.9454 0.877563 12.6844 3.13868 12.6844 5.92583C12.6844 6.32205 12.7288 6.70745 12.8154 7.07708C8.61909 6.86592 4.89813 4.85684 2.40785 1.80188C1.95934 2.57234 1.72341 3.44806 1.72417 4.33956C1.72417 6.09124 2.61554 7.63763 3.971 8.54229C3.16924 8.51783 2.38506 8.30127 1.68437 7.9108C1.68363 7.93202 1.68363 7.95267 1.68363 7.9753C1.68363 10.4205 3.424 12.462 5.73425 12.9246C5.30034 13.0428 4.85261 13.1026 4.4029 13.1023C4.08442 13.1021 3.76668 13.0716 3.45397 13.0113C4.09677 15.0174 5.96068 16.4772 8.17052 16.518C6.44245 17.8725 4.26557 18.6792 1.89966 18.6792C1.49262 18.6792 1.09054 18.6561 0.695312 18.6093C2.92984 20.0416 5.58313 20.8773 8.43486 20.8773" fill="white"/>
</svg>
